<svg width="41" height="34" viewBox="0 0 41 34" fill="none" xmlns="http://www.w3.org/2000/svg">
<path d="M17.5148 9.55365L34.497 4.36338L35.0419 5.30726L22.8017 16.9605L5.58189 23.4277L5.0331 22.4772L15.0034 11.1717C15.6748 10.4104 16.5441 9.85031 17.5148 9.55365Z" fill="#FCAED3"/>
<path d="M23.3544 17.9117L5.58584 23.4283L15.5562 12.1228C16.2275 11.3616 17.0969 10.8015 18.0675 10.5048L35.0497 5.31455L23.3544 17.9117Z" fill="#E5639C"/>
<rect x="12.4199" y="19.4141" width="18.4436" height="8.24135" transform="rotate(-30 12.4199 19.4141)" fill="#FFC9E3"/>
<path d="M22.7069 18.7896C27.1175 16.2431 31.1792 15.0209 31.7791 16.0596C32.003 16.4476 32.2882 16.9421 32.5125 17.3299C33.1122 18.3687 30.0228 21.2751 25.6122 23.8216C21.2015 26.3682 17.1398 27.5904 16.54 26.5516C16.3165 26.1636 16.0305 25.6691 15.8066 25.2813C15.2071 24.2424 18.2963 21.336 22.7069 18.7896Z" fill="#F27CB5"/>
<ellipse cx="24.5254" cy="21.9399" rx="9.22178" ry="2.17189" transform="rotate(-30 24.5254 21.9399)" fill="#D44583"/>
<ellipse cx="20.4375" cy="14.8579" rx="9.22178" ry="2.17189" transform="rotate(-30 20.4375 14.8579)" fill="#FFC9E3"/>
<path d="M10.2726 16.5018V16.5018C9.03366 16.6942 8.21892 17.8983 8.50112 19.1199L9.85812 24.994" stroke="#FFBEAA" stroke-width="0.91444"/>
<path d="M8.72893 24.9301C8.59891 24.4447 9.00951 23.9125 9.6464 23.7418C10.2832 23.5713 10.9047 23.8273 11.0348 24.3126C11.1646 24.7979 10.7536 25.3294 10.1168 25.5C9.48006 25.6704 8.85896 25.4153 8.72893 24.9301Z" fill="#FFBEAA"/>
<ellipse cx="9.91955" cy="25.3118" rx="0.544071" ry="0.231967" transform="rotate(-15 9.91955 25.3118)" fill="#D65A5A"/>
<path d="M7.76887 30.8808L9.5952 25.191L10.2297 25.0753L10.1252 31.5122L7.76887 30.8808Z" fill="#FCAED3"/>
<path d="M10.5486 30.151L9.59678 25.1893L10.2313 25.0735L11.9011 30.4486L10.5486 30.151Z" fill="#FCAED3"/>
<ellipse cx="8.78252" cy="31.4214" rx="1.21005" ry="0.585903" transform="rotate(12.2685 8.78252 31.4214)" fill="#E5639C"/>
<ellipse cx="11.054" cy="30.5338" rx="0.693899" ry="0.289474" transform="rotate(12.2685 11.054 30.5338)" fill="#E5639C"/>
<path d="M23.4423 20.0576C26.9053 18.0583 30.1532 16.8764 31.6793 16.963C30.9914 18.328 28.3438 20.5497 24.8808 22.5491C21.4174 24.5488 18.1689 25.7312 16.6431 25.6442C17.3309 24.2792 19.9791 22.0571 23.4423 20.0576Z" fill="#97144D"/>
</svg>
